<mxfile host="app.diagrams.net" modified="2023-11-22T16:09:43.084Z" agent="Mozilla/5.0 (Windows NT 10.0; Win64; x64) AppleWebKit/537.36 (KHTML, like Gecko) Chrome/119.0.0.0 Safari/537.36" etag="tYxgg24xMCAi5KCZArVw" version="22.0.0" type="device">
  <diagram name="Page-1" id="0P1CH8GQ0LOI6oN8Kn0V">
    <mxGraphModel dx="1024" dy="551" grid="1" gridSize="10" guides="1" tooltips="1" connect="1" arrows="1" fold="1" page="1" pageScale="1" pageWidth="850" pageHeight="1100" math="0" shadow="0">
      <root>
        <mxCell id="0" />
        <mxCell id="1" parent="0" />
        <mxCell id="YaQi_uk62bV8I6SJFLeO-1" value="" style="shape=flexArrow;endArrow=classic;html=1;rounded=1;endWidth=75.97222222222221;endSize=22.804166666666667;width=41.66666666666667;shadow=0;fillColor=#FFFFCC;" edge="1" parent="1">
          <mxGeometry width="50" height="50" relative="1" as="geometry">
            <mxPoint x="40" y="100" as="sourcePoint" />
            <mxPoint x="160" y="100" as="targetPoint" />
          </mxGeometry>
        </mxCell>
        <mxCell id="YaQi_uk62bV8I6SJFLeO-3" value="" style="shape=flexArrow;endArrow=classic;html=1;rounded=1;endWidth=75.97222222222221;endSize=22.804166666666667;width=41.66666666666667;shadow=0;fillColor=#FFFFCC;" edge="1" parent="1">
          <mxGeometry width="50" height="50" relative="1" as="geometry">
            <mxPoint x="320" y="100" as="sourcePoint" />
            <mxPoint x="200" y="100" as="targetPoint" />
          </mxGeometry>
        </mxCell>
        <mxCell id="YaQi_uk62bV8I6SJFLeO-5" value="" style="shape=flexArrow;endArrow=classic;html=1;rounded=1;endWidth=75.97222222222221;endSize=22.804166666666667;width=41.66666666666667;shadow=0;fillColor=#FFFFCC;" edge="1" parent="1">
          <mxGeometry width="50" height="50" relative="1" as="geometry">
            <mxPoint x="600" y="180" as="sourcePoint" />
            <mxPoint x="480" y="180" as="targetPoint" />
          </mxGeometry>
        </mxCell>
        <mxCell id="YaQi_uk62bV8I6SJFLeO-6" value="" style="shape=flexArrow;endArrow=classic;html=1;rounded=1;endWidth=75.97222222222221;endSize=22.804166666666667;width=41.66666666666667;shadow=0;fillColor=#FFFFCC;" edge="1" parent="1">
          <mxGeometry width="50" height="50" relative="1" as="geometry">
            <mxPoint x="470" y="180" as="sourcePoint" />
            <mxPoint x="420" y="40" as="targetPoint" />
            <Array as="points">
              <mxPoint x="420" y="150" />
            </Array>
          </mxGeometry>
        </mxCell>
        <mxCell id="YaQi_uk62bV8I6SJFLeO-8" value="" style="shape=flexArrow;endArrow=classic;html=1;rounded=1;endWidth=75.97222222222221;endSize=22.804166666666667;width=41.66666666666667;shadow=0;fillColor=#FFFFCC;" edge="1" parent="1">
          <mxGeometry width="50" height="50" relative="1" as="geometry">
            <mxPoint x="360" y="420" as="sourcePoint" />
            <mxPoint x="480" y="420" as="targetPoint" />
          </mxGeometry>
        </mxCell>
        <mxCell id="YaQi_uk62bV8I6SJFLeO-9" value="" style="shape=flexArrow;endArrow=classic;html=1;rounded=1;endWidth=75.97222222222221;endSize=22.804166666666667;width=41.66666666666667;shadow=0;fillColor=#FFFFCC;" edge="1" parent="1">
          <mxGeometry width="50" height="50" relative="1" as="geometry">
            <mxPoint x="490" y="420" as="sourcePoint" />
            <mxPoint x="540" y="280" as="targetPoint" />
            <Array as="points">
              <mxPoint x="540" y="390" />
            </Array>
          </mxGeometry>
        </mxCell>
        <mxCell id="YaQi_uk62bV8I6SJFLeO-11" value="" style="shape=flexArrow;endArrow=classic;html=1;rounded=1;endWidth=75.97222222222221;endSize=22.804166666666667;width=41.66666666666667;shadow=0;fillColor=#FFFFCC;" edge="1" parent="1">
          <mxGeometry width="50" height="50" relative="1" as="geometry">
            <mxPoint x="260" y="320" as="sourcePoint" />
            <mxPoint x="260" y="200" as="targetPoint" />
          </mxGeometry>
        </mxCell>
        <mxCell id="YaQi_uk62bV8I6SJFLeO-12" value="" style="rounded=1;whiteSpace=wrap;html=1;fillColor=#FFFFCC;" vertex="1" parent="1">
          <mxGeometry x="40" y="390" width="120" height="60" as="geometry" />
        </mxCell>
      </root>
    </mxGraphModel>
  </diagram>
</mxfile>
